<svg width="1528" height="488" viewBox="0 0 1528 488" fill="none" xmlns="http://www.w3.org/2000/svg">
<path d="M1514.87 479.868C1437.75 536.802 1056.44 262.085 591.818 285.712C291.568 300.977 96.0275 385.707 96.0275 385.707C61.8475 401.485 23.9476 430.278 8.30756 423.353C-17.7624 411.806 24.5376 306.717 127.378 229.634C206.858 170.06 250.318 181.31 319.758 117.431C386.188 56.3211 373.198 21.3904 427.048 5.96297C496.588 -13.958 590.048 23.7417 652.788 49.0454C745.918 86.6102 750.778 111.375 799.908 113.275C899.148 117.108 964.188 19.302 1001.53 31.0308C1040.41 43.2448 958.858 144.871 1022.59 201.986C1081.55 254.83 1202.46 209.531 1333.63 256.265C1479.05 308.085 1560.91 445.881 1514.87 479.868Z" fill="url(#paint0_linear_1_47)"/>
<defs>
<linearGradient id="paint0_linear_1_47" x1="130.166" y1="138.33" x2="1361.32" y2="780.306" gradientUnits="userSpaceOnUse">
<stop stop-color="#3AAD2A"/>
<stop offset="0.9975" stop-color="#166A39"/>
</linearGradient>
</defs>
</svg>
