<svg width="873" height="370" viewBox="0 0 873 370" fill="none" xmlns="http://www.w3.org/2000/svg">
<path d="M177.635 183.023C119.699 204.518 218.235 351.672 167.803 368.136C133.123 379.455 35.9048 326.555 8.49516 259.616C-32.9404 158.425 90.6104 38.4674 186.732 38.0452C258.48 37.7318 279.997 104.176 356.119 102.618C449.344 100.707 477.937 -2.59057 544.301 1.08262C610.317 4.73404 596.545 107.296 731.293 208.522C810.372 267.928 880.387 281.642 871.438 305.208C859.546 336.522 720.444 352.986 596.873 337.693C352.347 307.432 236.441 161.206 177.635 183.023Z" fill="url(#paint0_linear_1_51)"/>
<defs>
<linearGradient id="paint0_linear_1_51" x1="95.2388" y1="64.9171" x2="554.616" y2="586.497" gradientUnits="userSpaceOnUse">
<stop offset="0.00251824" stop-color="#166A39"/>
<stop offset="1" stop-color="#3AAD2A"/>
</linearGradient>
</defs>
</svg>
